<svg width="246" height="72" viewBox="0 0 246 72" fill="none" xmlns="http://www.w3.org/2000/svg">
<g clip-path="url(#clip0_3019_582011)">
<path d="M0.30642 22.8037L10.9595 43.0966C11.6868 44.4791 13.4797 45.6013 14.9607 45.5976L36.6929 45.5517C38.1764 45.5488 38.7886 44.4238 38.0618 43.0389L27.4077 22.747C26.681 21.3618 24.8885 20.2427 23.406 20.246L1.67428 20.2912C1.64075 20.2912 1.60831 20.2923 1.57478 20.2923C0.164962 20.3455 -0.404978 21.4497 0.30642 22.8037Z" fill="white"/>
<path d="M41.5858 46.4451L48.0371 58.4828C48.476 59.3039 49.5492 59.963 50.433 59.953L63.3812 59.8161C64.2655 59.8072 64.6221 59.1339 64.1836 58.3122L57.7344 46.2755C57.2948 45.4538 56.22 44.7962 55.3384 44.8055L42.3898 44.9416C42.3747 44.9416 42.3604 44.9416 42.3452 44.9416C41.4941 44.9732 41.1539 45.6361 41.5858 46.4451Z" fill="white"/>
<path d="M41.6613 0.737488L28.7147 17.3554C27.8298 18.4907 27.7126 20.5252 28.4514 21.9054L39.2754 42.1063C40.0131 43.4842 41.3293 43.6829 42.2127 42.5504L55.1608 25.9293C56.0439 24.7962 56.1624 22.7593 55.4221 21.3804L44.5997 1.1788C44.1706 0.381446 43.5502 -0.0205548 42.9316 0.00104022C42.4826 0.0193129 42.0335 0.260183 41.6613 0.737488Z" fill="white"/>
<path d="M38.6289 46.6482L30.9125 56.5503C30.3843 57.2264 30.3162 58.4397 30.7555 59.2601L37.2053 71.2974C37.6465 72.1191 38.4297 72.2372 38.9568 71.561L46.671 61.6601C47.197 60.9828 47.2674 59.7686 46.8285 58.9495L40.3783 46.9117C40.1244 46.4363 39.7536 46.1964 39.3842 46.2085C39.1177 46.2178 38.8489 46.3623 38.6289 46.6482Z" fill="white"/>
<path d="M180.182 50.1758H184.505V17.6321H180.182V50.1758Z" fill="white"/>
<path d="M102.734 27.9124C96.5348 27.9124 91.5092 32.939 91.5092 39.1393H91.5015V59.8672H95.8249V39.1393H95.8459C95.8459 35.3042 98.9551 32.1951 102.787 32.1951C106.622 32.1951 109.73 35.3042 109.73 39.1393C109.73 42.9732 106.622 46.0822 102.787 46.0822C100.625 46.0822 98.6926 45.0915 97.4202 43.5405V49.0284C99.0021 49.8804 100.813 50.3657 102.734 50.3657C108.936 50.3657 113.963 45.3381 113.963 39.1393C113.963 32.939 108.936 27.9124 102.734 27.9124Z" fill="white"/>
<path d="M127.099 27.9124C120.898 27.9124 115.874 32.939 115.874 39.1393H115.866V59.8672H120.189V39.1393H120.211C120.211 35.3042 123.318 32.1951 127.152 32.1951C130.988 32.1951 134.096 35.3042 134.096 39.1393C134.096 42.9732 130.988 46.0822 127.152 46.0822C124.989 46.0822 123.057 45.0915 121.784 43.5405V49.0284C123.365 49.8804 125.18 50.3657 127.099 50.3657C133.299 50.3657 138.326 45.3381 138.326 39.1393C138.326 32.939 133.299 27.9124 127.099 27.9124Z" fill="white"/>
<path d="M77.6343 17.6321C71.4332 17.6321 66.4082 22.6597 66.4082 28.8592V50.1758H70.7316V28.8592H70.7383C70.7383 25.0498 73.8247 21.9615 77.6359 21.9615C81.445 21.9615 84.5314 25.0498 84.5314 28.8592H84.5375V31.2996H73.4305V35.6219H84.5375V50.1758H88.8631V28.8592C88.8631 22.6597 83.8359 17.6321 77.6343 17.6321" fill="white"/>
<path d="M165.746 28.8592C165.746 25.0489 168.836 21.9589 172.649 21.9589V21.9567H178.092V17.6321H172.648C166.449 17.633 161.422 22.6597 161.422 28.8592V50.1758H165.746V36.0655H177.693V31.7419H165.746V28.8592Z" fill="white"/>
<path d="M202.603 28.0539V41.6436H202.601C202.545 44.3778 200.32 46.5784 197.567 46.5784C194.822 46.5784 192.593 44.3778 192.54 41.6436H192.535V28.0539H188.213V41.6572H188.22C188.271 46.0281 191.321 49.671 195.409 50.64V59.8672H199.731V50.64C203.818 49.671 206.87 46.0281 206.921 41.6572H206.925V28.0539H202.603" fill="white"/>
<path d="M226.907 40.8417C226.467 42.5814 225.354 44.15 223.675 45.1168C220.375 47.0257 216.154 45.8942 214.248 42.5944C212.342 39.2911 213.475 35.0733 216.774 33.1665C219.419 31.6392 222.655 32.0662 224.814 33.9954L215.105 39.6002L217.268 43.3461L221.761 40.7505L230.845 35.5057C230.613 34.8309 230.319 34.1697 229.948 33.5288C226.848 28.1594 219.979 26.3198 214.611 29.4206C209.24 32.5206 207.403 39.3867 210.503 44.7559C213.603 50.1246 220.466 51.9652 225.837 48.8659C228.908 47.0936 230.821 44.091 231.318 40.8417H226.907" fill="white"/>
<path d="M244.872 27.9144C242.266 27.9144 239.874 28.804 237.972 30.2913V28.0167H233.647V50.1758H237.972V39.1412H237.973C237.973 35.3294 241.063 32.2399 244.872 32.2399V32.2373H245.748V27.9144H244.872" fill="white"/>
<path d="M154.731 39.8978L143.978 34.8835L143.981 34.8795C143.463 34.6219 143.243 34.0012 143.487 33.4758C143.666 33.089 144.05 32.8661 144.45 32.8646V32.8557H156.72V28.5324H144.45V28.538C142.42 28.5401 140.478 29.6857 139.563 31.6468C138.307 34.3382 139.468 37.5344 142.15 38.801L152.904 43.8169L152.903 43.8195C152.903 43.8195 152.904 43.8195 152.907 43.8219C153.442 44.07 153.672 44.7033 153.423 45.2369C153.243 45.6254 152.855 45.8514 152.454 45.849V45.8546H139.883V50.1758H152.454V50.1726C154.484 50.1695 156.425 49.0238 157.339 47.0624C158.599 44.3643 157.432 41.1565 154.731 39.8978" fill="white"/>
</g>
<defs>
<clipPath id="clip0_3019_582011">
<rect width="245.746" height="72" fill="white"/>
</clipPath>
</defs>
</svg>
